<svg xmlns="http://www.w3.org/2000/svg" width="518" height="383.876" viewBox="0 0 518 383.876">
  <g id="Grupo_1101032" data-name="Grupo 1101032" transform="translate(-852 -7740.558)">
    <rect id="Rectángulo_4846" data-name="Rectángulo 4846" width="122" height="42.109" rx="5" transform="translate(852 7740.558)" fill="#3a1d71"/>
    <rect id="Rectángulo_4847" data-name="Rectángulo 4847" width="122" height="34" rx="5" transform="translate(900.5 7789.912)" fill="#3a1d71"/>
    <rect id="Rectángulo_4848" data-name="Rectángulo 4848" width="123" height="33.901" rx="5" transform="translate(949.143 7830.099)" fill="#3a1d71"/>
    <rect id="Rectángulo_4849" data-name="Rectángulo 4849" width="121" height="34.073" rx="5" transform="translate(995.713 7869.71)" fill="#3a1d71"/>
    <rect id="Rectángulo_4850" data-name="Rectángulo 4850" width="122" height="32.68" rx="5" transform="translate(1035.951 7911.065)" fill="#3a1d71"/>
    <rect id="Rectángulo_401299" data-name="Rectángulo 401299" width="122" height="32.603" rx="5" transform="translate(1117.507 7989.397)" fill="#3a1d71"/>
    <rect id="Rectángulo_401298" data-name="Rectángulo 401298" width="122" height="32.672" rx="5" transform="translate(1076.061 7949.328)" fill="#3a1d71"/>
    <rect id="Rectángulo_401300" data-name="Rectángulo 401300" width="122" height="43.234" rx="5" transform="translate(1164.301 8029.433)" fill="#3a1d71"/>
    <rect id="Rectángulo_401301" data-name="Rectángulo 401301" width="146" height="45" rx="5" transform="translate(1224 8079.434)" fill="#3a1d71"/>
    <g id="Grupo_20880" data-name="Grupo 20880" transform="translate(979.266 7757.824)">
      <g id="Grupo_20878" data-name="Grupo 20878" transform="translate(0 0)">
        <path id="Trazado_4455" data-name="Trazado 4455" d="M575.929,240.667a.913.913,0,0,1-.913-.913V219.826h-21.6a.913.913,0,1,1,0-1.826h22.516a.912.912,0,0,1,.913.913v20.841A.913.913,0,0,1,575.929,240.667Z" transform="translate(-552.5 -218)" fill="#8722e2"/>
      </g>
      <g id="Grupo_20879" data-name="Grupo 20879" transform="translate(15.963 14.459)">
        <path id="Trazado_4456" data-name="Trazado 4456" d="M578.73,243l1.337-1.245,6.128,6.594,6.13-6.594L593.662,243l-7.467,8.029Z" transform="translate(-578.73 -241.76)" fill="#8722e2"/>
      </g>
    </g>
    <g id="Grupo_20895" data-name="Grupo 20895" transform="translate(1027.485 7801.545)">
      <g id="Grupo_20893" data-name="Grupo 20893" transform="translate(0 0)">
        <path id="Trazado_4465" data-name="Trazado 4465" d="M697.429,327.667a.913.913,0,0,1-.913-.913V306.826h-21.6a.913.913,0,1,1,0-1.826h22.516a.913.913,0,0,1,.913.913v20.841A.913.913,0,0,1,697.429,327.667Z" transform="translate(-674 -305)" fill="#8722e2"/>
      </g>
      <g id="Grupo_20894" data-name="Grupo 20894" transform="translate(15.963 14.459)">
        <path id="Trazado_4466" data-name="Trazado 4466" d="M700.23,330l1.337-1.245,6.128,6.594,6.13-6.594L715.162,330l-7.467,8.029Z" transform="translate(-700.23 -328.76)" fill="#8722e2"/>
      </g>
    </g>
    <g id="Grupo_20898" data-name="Grupo 20898" transform="translate(1075.953 7841.156)">
      <g id="Grupo_20896" data-name="Grupo 20896">
        <path id="Trazado_4467" data-name="Trazado 4467" d="M818.429,414.666a.913.913,0,0,1-.913-.913V393.826h-21.6a.913.913,0,0,1,0-1.826h22.516a.913.913,0,0,1,.913.913v20.841A.913.913,0,0,1,818.429,414.666Z" transform="translate(-795 -392)" fill="#8722e2"/>
      </g>
      <g id="Grupo_20897" data-name="Grupo 20897" transform="translate(15.963 14.459)">
        <path id="Trazado_4468" data-name="Trazado 4468" d="M821.23,417l1.337-1.245,6.128,6.594,6.13-6.594L836.162,417l-7.467,8.029Z" transform="translate(-821.23 -415.76)" fill="#8722e2"/>
      </g>
    </g>
    <g id="Grupo_20901" data-name="Grupo 20901" transform="translate(1120 7881.551)">
      <g id="Grupo_20899" data-name="Grupo 20899">
        <path id="Trazado_4469" data-name="Trazado 4469" d="M937.429,501.666a.913.913,0,0,1-.913-.913V480.826h-21.6a.913.913,0,1,1,0-1.826h22.516a.913.913,0,0,1,.913.913v20.84A.913.913,0,0,1,937.429,501.666Z" transform="translate(-914 -479)" fill="#8722e2"/>
      </g>
      <g id="Grupo_20900" data-name="Grupo 20900" transform="translate(15.963 14.459)">
        <path id="Trazado_4470" data-name="Trazado 4470" d="M940.23,504l1.337-1.245,6.128,6.594,6.129-6.594L955.162,504l-7.467,8.029Z" transform="translate(-940.23 -502.76)" fill="#8722e2"/>
      </g>
    </g>
    <g id="Grupo_1100850" data-name="Grupo 1100850" transform="translate(1162.463 7921.041)">
      <g id="Grupo_20899-2" data-name="Grupo 20899">
        <path id="Trazado_4469-2" data-name="Trazado 4469" d="M937.429,501.666a.913.913,0,0,1-.913-.913V480.826h-21.6a.913.913,0,1,1,0-1.826h22.516a.913.913,0,0,1,.913.913v20.84A.913.913,0,0,1,937.429,501.666Z" transform="translate(-914 -479)" fill="#8722e2"/>
      </g>
      <g id="Grupo_20900-2" data-name="Grupo 20900" transform="translate(15.963 14.459)">
        <path id="Trazado_4470-2" data-name="Trazado 4470" d="M940.23,504l1.337-1.245,6.128,6.594,6.129-6.594L955.162,504l-7.467,8.029Z" transform="translate(-940.23 -502.76)" fill="#8722e2"/>
      </g>
    </g>
    <g id="Grupo_1100851" data-name="Grupo 1100851" transform="translate(1201 7962.664)">
      <g id="Grupo_20899-3" data-name="Grupo 20899" transform="translate(0 -3.57)">
        <path id="Trazado_4469-3" data-name="Trazado 4469" d="M937.429,501.666a.913.913,0,0,1-.913-.913V480.826h-21.6a.913.913,0,1,1,0-1.826h22.516a.913.913,0,0,1,.913.913v20.84A.913.913,0,0,1,937.429,501.666Z" transform="translate(-914 -479)" fill="#8722e2"/>
      </g>
      <g id="Grupo_20900-3" data-name="Grupo 20900" transform="translate(15.963 14.459)">
        <path id="Trazado_4470-3" data-name="Trazado 4470" d="M940.23,504l1.337-1.245,6.128,6.594,6.129-6.594L955.162,504l-7.467,8.029Z" transform="translate(-940.23 -502.76)" fill="#8722e2"/>
      </g>
    </g>
    <g id="Grupo_1100852" data-name="Grupo 1100852" transform="translate(1247.706 7998.932)">
      <g id="Grupo_20899-4" data-name="Grupo 20899">
        <path id="Trazado_4469-4" data-name="Trazado 4469" d="M937.429,501.666a.913.913,0,0,1-.913-.913V480.826h-21.6a.913.913,0,1,1,0-1.826h22.516a.913.913,0,0,1,.913.913v20.84A.913.913,0,0,1,937.429,501.666Z" transform="translate(-914 -479)" fill="#8722e2"/>
      </g>
      <g id="Grupo_20900-4" data-name="Grupo 20900" transform="translate(15.963 14.459)">
        <path id="Trazado_4470-4" data-name="Trazado 4470" d="M940.23,504l1.337-1.245,6.128,6.594,6.129-6.594L955.162,504l-7.467,8.029Z" transform="translate(-940.23 -502.76)" fill="#8722e2"/>
      </g>
    </g>
    <g id="Grupo_1100853" data-name="Grupo 1100853" transform="translate(1297 8048.933)">
      <g id="Grupo_20899-5" data-name="Grupo 20899">
        <path id="Trazado_4469-5" data-name="Trazado 4469" d="M937.429,501.666a.913.913,0,0,1-.913-.913V480.826h-21.6a.913.913,0,1,1,0-1.826h22.516a.913.913,0,0,1,.913.913v20.84A.913.913,0,0,1,937.429,501.666Z" transform="translate(-914 -479)" fill="#8722e2"/>
      </g>
      <g id="Grupo_20900-5" data-name="Grupo 20900" transform="translate(15.963 14.459)">
        <path id="Trazado_4470-5" data-name="Trazado 4470" d="M940.23,504l1.337-1.245,6.128,6.594,6.129-6.594L955.162,504l-7.467,8.029Z" transform="translate(-940.23 -502.76)" fill="#8722e2"/>
      </g>
    </g>
    <text id="Modelado_de_negocios." data-name="Modelado de 
negocios." transform="translate(861 7758.112)" fill="#fff" font-size="13" font-family="Roboto-Bold, Roboto" font-weight="700"><tspan x="0" y="0">Modelado de </tspan><tspan x="0" y="16">negocios.</tspan></text>
    <text id="Requerimientos." transform="translate(963.931 7811.412)" fill="#fff" font-size="13" font-family="Roboto-Bold, Roboto" font-weight="700"><tspan x="-48.09" y="0">Requerimientos.</tspan></text>
    <text id="Análisis_y_diseño." data-name="Análisis y diseño." transform="translate(1015.379 7851.023)" fill="#fff" font-size="13" font-family="Roboto-Bold, Roboto" font-weight="700"><tspan x="-51.146" y="0">Análisis y diseño.</tspan></text>
    <text id="Implementación." transform="translate(1057.746 7891.112)" fill="#fff" font-size="13" font-family="Roboto-Bold, Roboto" font-weight="700"><tspan x="-49.198" y="0">Implementación.</tspan></text>
    <text id="Pruebas." transform="translate(1096.4 7931.907)" fill="#fff" font-size="13" font-family="Roboto-Bold, Roboto" font-weight="700"><tspan x="-26.089" y="0">Pruebas.</tspan></text>
    <text id="Configuración." transform="translate(1173.149 8010.932)" fill="#fff" font-size="13" font-family="Roboto-Bold, Roboto" font-weight="700"><tspan x="-42.948" y="0">Configuración.</tspan></text>
    <text id="Despliegue." transform="translate(1132.463 7970.526)" fill="#fff" font-size="13" font-family="Roboto-Bold, Roboto" font-weight="700"><tspan x="-34.449" y="0">Despliegue.</tspan></text>
    <text id="Administración_del_cambio." data-name="Administración 
del cambio." transform="translate(1223.19 8047.628)" fill="#fff" font-size="13" font-family="Roboto-Bold, Roboto" font-weight="700"><tspan x="-46.097" y="0">Administración </tspan><tspan x="-33.966" y="16">del cambio.</tspan></text>
    <text id="Administración_de_proyectos_y_ambiente." data-name="Administración de 
proyectos y ambiente." transform="translate(1297 8097.434)" fill="#fff" font-size="13" font-family="Roboto-Bold, Roboto" font-weight="700"><tspan x="-54.891" y="0">Administración de </tspan><tspan x="-64.622" y="16">proyectos y ambiente.</tspan></text>
  </g>
</svg>
